<svg width="1040" height="180" viewBox="0 0 1040 180" fill="none" xmlns="http://www.w3.org/2000/svg">
<path d="M368.816 137.16C374.384 137.16 379.448 136.032 384.008 133.776C388.568 131.52 392.264 127.92 395.096 122.976C397.064 119.568 398.12 116.28 398.264 113.112C398.456 109.896 398.552 105.888 398.552 101.088V31.32H380.984V101.088C380.984 103.92 380.912 106.416 380.768 108.576C380.672 110.688 380.288 112.512 379.616 114.048C378.512 116.448 376.832 118.2 374.576 119.304C372.32 120.36 370.184 120.888 368.168 120.888C365.096 120.888 362.288 119.832 359.744 117.72C357.2 115.608 355.664 113.088 355.136 110.16L338 114.264C340.112 121.224 343.784 126.792 349.016 130.968C354.248 135.096 360.848 137.16 368.816 137.16ZM455.573 137.16C463.061 137.16 469.901 135.24 476.093 131.4C482.333 127.512 486.941 122.04 489.917 114.984L472.781 109.8C469.325 117.192 463.253 120.888 454.565 120.888C448.661 120.888 444.005 119.184 440.597 115.776C437.189 112.32 435.149 107.376 434.477 100.944H490.781C491.453 91.584 490.421 83.472 487.685 76.608C484.949 69.744 480.749 64.44 475.085 60.696C469.469 56.952 462.629 55.08 454.565 55.08C446.933 55.08 440.213 56.808 434.405 60.264C428.597 63.672 424.061 68.52 420.797 74.808C417.533 81.096 415.901 88.488 415.901 96.984C415.901 104.856 417.557 111.816 420.869 117.864C424.229 123.912 428.885 128.64 434.837 132.048C440.789 135.456 447.701 137.16 455.573 137.16ZM455.285 70.272C460.661 70.272 464.789 71.688 467.669 74.52C470.597 77.304 472.445 81.744 473.213 87.84H434.909C436.973 76.128 443.765 70.272 455.285 70.272ZM504.592 135H522.088V87.12C522.088 82.272 523.408 78.336 526.048 75.312C528.736 72.288 532.288 70.776 536.704 70.776C541.264 70.776 544.864 72.288 547.504 75.312C550.144 78.336 551.464 82.56 551.464 87.984V135H568.744V87.12C568.744 81.984 570.136 77.976 572.92 75.096C575.752 72.216 579.256 70.776 583.432 70.776C587.896 70.776 591.448 72.288 594.088 75.312C596.776 78.288 598.12 82.44 598.12 87.768V135H615.472V83.376C615.472 74.928 613.168 68.136 608.56 63C604 57.864 597.424 55.296 588.832 55.296C583.792 55.296 579.184 56.4 575.008 58.608C570.832 60.816 567.544 63.84 565.144 67.68C563.08 63.888 560.152 60.888 556.36 58.68C552.568 56.424 547.936 55.296 542.464 55.296C537.808 55.296 533.512 56.232 529.576 58.104C525.688 59.928 522.472 62.448 519.928 65.664V57.24H504.592V135ZM634.108 169.56H651.604V131.04C654.244 132.96 657.22 134.448 660.532 135.504C663.892 136.608 667.588 137.16 671.62 137.16C678.82 137.16 685.06 135.36 690.34 131.76C695.668 128.16 699.796 123.264 702.724 117.072C705.652 110.88 707.116 103.896 707.116 96.12C707.116 88.248 705.628 81.216 702.652 75.024C699.724 68.832 695.548 63.96 690.124 60.408C684.7 56.856 678.316 55.08 670.972 55.08C666.556 55.08 662.548 55.752 658.948 57.096C655.348 58.44 652.18 60.36 649.444 62.856V57.24H634.108V169.56ZM668.956 121.608C661.996 121.608 657.004 119.256 653.98 114.552C650.956 109.8 649.444 103.656 649.444 96.12C649.444 88.536 650.932 82.392 653.908 77.688C656.932 72.984 661.756 70.632 668.38 70.632C673.036 70.632 676.852 71.784 679.828 74.088C682.852 76.344 685.084 79.416 686.524 83.304C688.012 87.144 688.756 91.416 688.756 96.12C688.756 100.872 688.036 105.168 686.596 109.008C685.204 112.848 683.044 115.92 680.116 118.224C677.188 120.48 673.468 121.608 668.956 121.608ZM752.146 137.232C757.762 137.232 762.682 136.272 766.906 134.352C771.178 132.384 774.73 129.72 777.562 126.36V135H792.898V57.24H775.474V97.2C775.474 103.488 774.562 108.36 772.738 111.816C770.962 115.224 768.682 117.6 765.898 118.944C763.114 120.24 760.234 120.888 757.258 120.888C753.13 120.888 749.842 120 747.394 118.224C744.946 116.4 743.122 114.12 741.922 111.384C740.77 108.6 740.002 105.72 739.618 102.744C739.282 99.768 739.114 97.08 739.114 94.68V57.24H721.546V100.656C721.546 102.48 721.69 104.904 721.978 107.928C722.314 110.952 723.01 114.144 724.066 117.504C725.122 120.864 726.754 124.056 728.962 127.08C731.17 130.056 734.146 132.504 737.89 134.424C741.682 136.296 746.434 137.232 752.146 137.232ZM858.703 135V120.456C853.855 121.176 849.535 121.368 845.743 121.032C841.951 120.696 839.191 119.088 837.463 116.208C836.551 114.72 836.047 112.8 835.951 110.448C835.903 108.048 835.879 105.312 835.879 102.24V70.848H858.703V57.24H835.879V35.64H818.599V57.24H804.487V70.848H818.599V103.248C818.599 107.712 818.647 111.696 818.743 115.2C818.839 118.656 819.775 122.064 821.551 125.424C823.567 129.12 826.519 131.832 830.407 133.56C834.295 135.24 838.687 136.128 843.583 136.224C848.527 136.368 853.567 135.96 858.703 135ZM878.304 135H896.088V117.216H878.304V135ZM920.598 45.432H937.95V29.52H920.598V45.432ZM920.598 135H937.95V57.24H920.598V135ZM959.374 135H976.942V95.04C976.942 88.752 977.83 83.904 979.606 80.496C981.43 77.04 983.734 74.664 986.518 73.368C989.35 72.024 992.23 71.352 995.158 71.352C999.286 71.352 1002.57 72.264 1005.02 74.088C1007.47 75.864 1009.27 78.144 1010.42 80.928C1011.62 83.664 1012.39 86.52 1012.73 89.496C1013.11 92.472 1013.3 95.16 1013.3 97.56V135H1030.87V91.584C1030.87 89.76 1030.7 87.336 1030.37 84.312C1030.08 81.288 1029.41 78.096 1028.35 74.736C1027.29 71.376 1025.66 68.208 1023.45 65.232C1021.25 62.208 1018.25 59.76 1014.45 57.888C1010.71 55.968 1005.98 55.008 1000.27 55.008C994.654 55.008 989.71 55.992 985.438 57.96C981.214 59.88 977.686 62.52 974.854 65.88V57.24H959.374V135Z" fill="#0E0E0E"/>
<path fill-rule="evenodd" clip-rule="evenodd" d="M180.947 0C180.395 0 179.947 0.447714 179.947 0.999999V13.8421H29.6841C28.5795 13.8421 27.6841 14.7375 27.6841 15.8421V39.5263C27.6841 40.6309 28.5795 41.5263 29.6841 41.5263H90.9162L77.1955 64.0405C72.3622 62.8967 67.3046 62.2895 62.0972 62.2895C27.8019 62.2895 0 88.6281 0 121.118C0 153.609 27.8019 179.947 62.0972 179.947C96.3926 179.947 124.194 153.609 124.194 121.118C124.194 102.871 115.425 86.5643 101.662 75.7738L122.533 41.5263H146.916L166.689 75.7739C153.65 86.5644 145.342 102.871 145.342 121.118C145.342 153.609 171.681 179.947 204.171 179.947C236.661 179.947 263 153.609 263 121.118C263 88.6281 236.661 62.2895 204.171 62.2895C199.238 62.2895 194.446 62.8967 189.867 64.0405L176.869 41.5263H226.395C227.499 41.5263 228.395 40.6309 228.395 39.5263V15.8421L228.395 15.8228V1C228.395 0.447715 227.947 0 227.395 0H180.947ZM65.5258 83.1892L42.3972 121.141C41.8586 122.024 42.1581 123.144 43.0661 123.64L63.4903 134.812C64.3983 135.308 65.5711 134.994 66.1096 134.111L90.4596 94.1549C97.76 101.047 102.278 110.583 102.278 121.118C102.278 142.141 84.2884 159.184 62.0973 159.184C39.9062 159.184 21.9167 142.141 21.9167 121.118C21.9167 100.095 39.9062 83.0526 62.0973 83.0526C63.2521 83.0526 64.3956 83.0987 65.5258 83.1892ZM177.301 94.155L200.357 134.088C200.874 134.984 202.02 135.291 202.916 134.774L222.135 123.678C223.031 123.16 223.338 122.014 222.821 121.118L200.923 83.1892C201.993 83.0987 203.077 83.0526 204.171 83.0526C225.194 83.0526 242.237 100.095 242.237 121.118C242.237 142.141 225.194 159.184 204.171 159.184C183.148 159.184 166.105 142.141 166.105 121.118C166.105 110.583 170.385 101.047 177.301 94.155Z" fill="#E56234"/>
<rect x="214.553" y="13.842" width="13.8421" height="13.8421" fill="#C4C4C4"/>
</svg>
