<svg width="111" height="111" viewBox="0 0 111 111" fill="none" xmlns="http://www.w3.org/2000/svg">
<rect width="111" height="111" rx="19" fill="#E56234"/>
<path d="M43.8253 66.0297C42.2652 65.1349 41.2109 63.4536 41.2109 61.5293C41.2109 53.5867 47.6726 47.125 55.6152 47.125H61.5512L61.8307 42.5156H28.1967L30.6125 82.3759C30.6679 83.2883 31.4237 84 32.3379 84H42.944C41.8564 82.5546 41.2109 80.7586 41.2109 78.8145C41.2109 76.5732 42.6406 74.6597 44.6356 73.9372C43.9284 72.8529 43.5156 71.5601 43.5156 70.1719C43.5156 68.7823 43.9293 67.4882 44.6378 66.4029C44.0742 66.276 43.7614 66.1513 43.8253 66.0297V66.0297Z" fill="white"/>
<path d="M45.0119 39.059C45.0132 39.059 45.0146 39.0586 45.0159 39.0586H62.2988C63.2536 39.0586 64.0273 38.2848 64.0273 37.3301C64.0273 36.3753 63.2536 35.6016 62.2988 35.6016H48.2047L52.864 28.457H58.8418C59.7965 28.457 60.5703 27.6833 60.5703 26.7285C60.5703 25.7738 59.7965 25 58.8418 25H51.9277C51.3435 25 50.7988 25.2948 50.4801 25.7841L44.0774 35.6016H27.7285C26.7738 35.6016 26 36.3753 26 37.3301C26 38.2848 26.7738 39.0586 27.7285 39.0586H45.0056C45.0078 39.0586 45.0101 39.059 45.0119 39.059Z" fill="white"/>
<path d="M44.668 61.5293C44.668 62.484 45.4417 63.2578 46.3965 63.2578H83.2715C84.2262 63.2578 85 62.484 85 61.5293C85 55.493 80.089 50.582 74.0527 50.582H55.6152C49.5789 50.582 44.668 55.493 44.668 61.5293Z" fill="white"/>
<path d="M50.4297 66.7148C48.5202 66.7148 46.9727 68.2624 46.9727 70.1719C46.9727 72.0813 48.5202 73.6289 50.4297 73.6289H79.2383C81.1478 73.6289 82.6953 72.0813 82.6953 70.1719C82.6953 68.2624 81.1478 66.7148 79.2383 66.7148H50.4297Z" fill="white"/>
<path d="M83.2715 77.0859H46.3965C45.4417 77.0859 44.668 77.8597 44.668 78.8145C44.668 81.6737 46.9943 84 49.8535 84H79.8145C82.6737 84 85 81.6737 85 78.8145C85 77.8597 84.2262 77.0859 83.2715 77.0859Z" fill="white"/>
</svg>
