<svg width="111" height="111" viewBox="0 0 111 111" fill="none" xmlns="http://www.w3.org/2000/svg">
<rect width="111" height="111" rx="19" fill="#E56234"/>
<g clip-path="url(#clip0)">
<path d="M82.3268 48.894L77.9785 34.3999C76.9871 31.0944 74.0032 28.875 70.5539 28.875H41.446C37.9968 28.875 35.0129 31.0944 34.0215 34.3999L29.6732 48.894C26.9276 50.0872 25 52.8196 25 56V71.5C25 73.64 26.735 75.375 28.875 75.375H28.8752L28.875 79.2498C28.875 81.3899 30.6098 83.125 32.75 83.125H36.6252C38.7652 83.125 40.5002 81.3899 40.5002 79.25L40.4986 75.375H71.5L71.4998 79.2498C71.4998 81.3899 73.2346 83.125 75.3748 83.125H79.25C81.3902 83.125 83.125 81.3899 83.125 79.25V75.3752L83.1236 75.375H83.125C85.2649 75.375 87 73.6399 87 71.5V56C87 52.8196 85.0724 50.0872 82.3268 48.894L82.3268 48.894ZM41.4459 36.625H70.5538L74.0414 48.25H37.9583L41.4459 36.625H41.4459ZM40.4999 65.6875C38.3597 65.6875 36.6249 63.9525 36.6249 61.8125C36.6249 59.6723 38.3597 57.9375 40.4999 57.9375C42.6401 57.9375 44.3749 59.6723 44.3749 61.8125C44.3749 63.9525 42.6401 65.6875 40.4999 65.6875ZM71.4999 65.6875C69.3597 65.6875 67.6249 63.9525 67.6249 61.8125C67.6249 59.6723 69.3597 57.9375 71.4999 57.9375C73.6401 57.9375 75.3749 59.6723 75.3749 61.8125C75.3749 63.9525 73.6401 65.6875 71.4999 65.6875Z" fill="white"/>
</g>
<defs>
<clipPath id="clip0">
<rect width="62" height="62" fill="white" transform="translate(25 25)"/>
</clipPath>
</defs>
</svg>
