<svg width="111" height="111" viewBox="0 0 111 111" fill="none" xmlns="http://www.w3.org/2000/svg">
<rect width="111" height="111" rx="19" fill="#E56234"/>
<path d="M56.3536 59.4442C53.3424 59.4442 50.8926 61.8939 50.8926 64.9051V84.7429C50.8926 87.7542 53.3424 90.204 56.3536 90.204C59.3648 90.204 61.8146 87.7542 61.8146 84.7429V64.9051C61.8146 61.8939 59.3648 59.4442 56.3536 59.4442Z" fill="white"/>
<path d="M57.6983 29.7939C60.8578 29.047 62.8137 25.8803 62.0668 22.7208C61.32 19.5613 58.1532 17.6054 54.9937 18.3523C51.8342 19.0991 49.8784 22.2659 50.6252 25.4254C51.3721 28.5849 54.5388 30.5407 57.6983 29.7939Z" fill="white"/>
<path d="M60.6725 34.1819H52.035C45.7599 34.1819 40.6549 39.287 40.6549 45.562V73.5544L46.6741 76.7425V64.9052C46.6741 59.5678 51.0164 55.2256 56.3539 55.2256C61.6913 55.2256 66.0337 59.5678 66.0337 64.9052V77.2522L72.0528 73.6314V45.562C72.0527 39.2869 66.9476 34.1819 60.6725 34.1819V34.1819Z" fill="white"/>
<path d="M46.2554 24.0835C46.2554 23.3601 46.3334 22.6549 46.4787 21.9741H37V26.1929H46.4787C46.3334 25.5121 46.2554 24.8069 46.2554 24.0835Z" fill="white"/>
<path d="M66.2288 21.9741C66.374 22.6549 66.4521 23.3601 66.4521 24.0835C66.4521 24.8069 66.374 25.5122 66.2288 26.1929H75.7073V21.9741H66.2288Z" fill="white"/>
</svg>
